<svg xmlns="http://www.w3.org/2000/svg" version="1.1" xmlns:xlink="http://www.w3.org/1999/xlink" xmlns:svgjs="http://svgjs.dev/svgjs" width="2000" height="1247" viewBox="0 0 2000 1247"><g transform="matrix(1,0,0,1,-1.2121212121212466,0.504858299595071)"><svg viewBox="0 0 396 247" data-background-color="#ffffff" preserveAspectRatio="xMidYMid meet" height="1247" width="2000" xmlns="http://www.w3.org/2000/svg" xmlns:xlink="http://www.w3.org/1999/xlink"><g id="tight-bounds" transform="matrix(1,0,0,1,0.2400000000000091,-0.09999999999999432)"><svg viewBox="0 0 395.52 247.2" height="247.2" width="395.52"><g><svg></svg></g><g><svg viewBox="0 0 395.52 247.2" height="247.2" width="395.52"><g transform="matrix(1,0,0,1,75.54432,98.00004599474146)"><svg viewBox="0 0 244.43135999999998 51.199908010517085" height="51.199908010517085" width="244.43135999999998"><g><svg viewBox="0 0 244.43135999999998 51.199908010517085" height="51.199908010517085" width="244.43135999999998"><g><svg viewBox="0 0 244.43136 51.19990801051709" height="51.199908010517085" width="244.43135999999998"><g><svg viewBox="0 0 244.43136 51.19990801051709" height="51.19990801051709" width="244.43136"><g id="textblocktransform"><svg viewBox="0 0 244.43136 51.19990801051709" height="51.19990801051709" width="244.43136" id="textblock"><g><svg viewBox="0 0 244.43136 51.19990801051709" height="51.19990801051709" width="244.43136"><g transform="matrix(1,0,0,1,0,0)"><svg width="244.43136" viewBox="3.25 -35.01 167.12 35.01" height="51.19990801051709" data-palette-color="#5d7293"><path d="M17.26-28L10.25-28 10.25-13.99 17.26-13.99Q18.7-13.99 19.97-14.54 21.24-15.09 22.19-16.04 23.14-16.99 23.69-18.27 24.24-19.56 24.24-21L24.24-21Q24.24-22.44 23.69-23.72 23.14-25 22.19-25.95 21.24-26.9 19.97-27.45 18.7-28 17.26-28L17.26-28ZM10.25-7.01L10.25 0 3.25 0 3.25-35.01 17.26-35.01Q19.19-35.01 20.97-34.51 22.75-34.01 24.3-33.09 25.85-32.18 27.14-30.9 28.42-29.61 29.33-28.05 30.25-26.49 30.75-24.71 31.25-22.92 31.25-21L31.25-21Q31.25-18.12 30.15-15.56 29.05-13.01 27.15-11.11 25.24-9.2 22.69-8.11 20.14-7.01 17.26-7.01L17.26-7.01 10.25-7.01ZM59.86-7.01L59.86 0 35.35 0 35.35-35.01 42.36-35.01 42.36-7.01 59.86-7.01ZM70.09-13.99L84.1-13.99 84.1-21Q84.1-22.44 83.55-23.72 83-25 82.05-25.95 81.1-26.9 79.82-27.45 78.54-28 77.09-28L77.09-28Q75.65-28 74.37-27.45 73.09-26.9 72.14-25.95 71.19-25 70.64-23.72 70.09-22.44 70.09-21L70.09-21 70.09-13.99ZM91.11-21L91.11 0 84.1 0 84.1-7.01 70.09-7.01 70.09 0 63.11 0 63.11-21Q63.11-23.9 64.2-26.45 65.3-29 67.19-30.91 69.09-32.81 71.64-33.91 74.19-35.01 77.09-35.01L77.09-35.01Q80-35.01 82.55-33.91 85.1-32.81 87.01-30.91 88.91-29 90.01-26.45 91.11-23.9 91.11-21L91.11-21ZM125.19-35.01L125.19 0 117.69 0 104.19-23.05 104.19 0 97.18 0 97.18-35.01 104.68-35.01 118.18-11.94 118.18-35.01 125.19-35.01ZM138.69-35.01L138.69 0 131.68 0 131.68-35.01 138.69-35.01ZM159.88-28L159.88 0 152.89 0 152.89-28 142.37-28 142.37-35.01 170.37-35.01 170.37-28 159.88-28Z" opacity="1" transform="matrix(1,0,0,1,0,0)" fill="#ffffff" class="wordmark-text-0" data-fill-palette-color="primary" id="text-0"></path></svg></g></svg></g></svg></g></svg></g></svg></g></svg></g></svg></g><path d="M192.068 92L192.068 31.69 8.249 31.69 8.249 215.51 192.068 215.51 192.068 155.2 187.451 155.2 187.451 210.892 12.866 210.892 12.866 36.308 187.451 36.308 187.451 92Z" fill="#ffffff" stroke="transparent" data-fill-palette-color="tertiary"></path></svg></g><defs></defs></svg><rect width="395.52" height="247.2" fill="none" stroke="none" visibility="hidden"></rect></g></svg></g></svg>